<svg width="33" height="33" viewBox="0 0 33 33" fill="none" xmlns="http://www.w3.org/2000/svg">
<path d="M16.015 4.41528C9.39001 4.41528 4.01501 9.79028 4.01501 16.4153C4.01501 23.0403 9.39001 28.4153 16.015 28.4153C17.1213 28.4153 18.015 29.309 18.015 30.4153C18.015 31.5215 17.1213 32.4153 16.015 32.4153C7.17752 32.4153 0.0150146 25.2528 0.0150146 16.4153C0.0150146 7.57778 7.17752 0.415283 16.015 0.415283C24.8525 0.415283 32.015 7.57778 32.015 16.4153V18.4153C32.015 21.7278 29.3275 24.4153 26.015 24.4153C24.1838 24.4153 22.54 23.5903 21.44 22.2965C20.015 23.609 18.1088 24.4153 16.015 24.4153C11.5963 24.4153 8.01501 20.834 8.01501 16.4153C8.01501 11.9965 11.5963 8.41528 16.015 8.41528C17.7588 8.41528 19.3713 8.97153 20.6838 9.92153C21.04 9.60903 21.5025 9.41528 22.015 9.41528C23.1213 9.41528 24.015 10.309 24.015 11.4153V16.4153V18.4153C24.015 19.5215 24.9088 20.4153 26.015 20.4153C27.1213 20.4153 28.015 19.5215 28.015 18.4153V16.4153C28.015 9.79028 22.64 4.41528 16.015 4.41528ZM20.015 16.4153C20.015 15.3544 19.5936 14.337 18.8434 13.5869C18.0933 12.8367 17.0759 12.4153 16.015 12.4153C14.9541 12.4153 13.9367 12.8367 13.1866 13.5869C12.4364 14.337 12.015 15.3544 12.015 16.4153C12.015 17.4761 12.4364 18.4936 13.1866 19.2437C13.9367 19.9939 14.9541 20.4153 16.015 20.4153C17.0759 20.4153 18.0933 19.9939 18.8434 19.2437C19.5936 18.4936 20.015 17.4761 20.015 16.4153Z" fill="black"/>
</svg>
