<svg width="19" height="17" viewBox="0 0 19 17" fill="none" xmlns="http://www.w3.org/2000/svg">
<path d="M0.413574 1.3396C0.413574 0.923975 0.747949 0.5896 1.16357 0.5896H2.58545C3.27295 0.5896 3.88232 0.9896 4.1667 1.5896H17.0104C17.8323 1.5896 18.4323 2.37085 18.2167 3.1646L16.9354 7.92397C16.6698 8.90522 15.7792 9.5896 14.7636 9.5896H5.74795L5.9167 10.4802C5.98545 10.8333 6.29482 11.0896 6.6542 11.0896H15.6636C16.0792 11.0896 16.4136 11.424 16.4136 11.8396C16.4136 12.2552 16.0792 12.5896 15.6636 12.5896H6.6542C5.57295 12.5896 4.64482 11.8208 4.44482 10.7615L2.83232 2.29272C2.81045 2.17397 2.70732 2.0896 2.58545 2.0896H1.16357C0.747949 2.0896 0.413574 1.75522 0.413574 1.3396ZM4.41357 15.0896C4.41357 14.8926 4.45237 14.6976 4.52775 14.5156C4.60314 14.3336 4.71363 14.1682 4.85291 14.0289C4.9922 13.8897 5.15756 13.7792 5.33955 13.7038C5.52154 13.6284 5.71659 13.5896 5.91357 13.5896C6.11056 13.5896 6.30561 13.6284 6.4876 13.7038C6.66959 13.7792 6.83495 13.8897 6.97423 14.0289C7.11352 14.1682 7.22401 14.3336 7.29939 14.5156C7.37478 14.6976 7.41357 14.8926 7.41357 15.0896C7.41357 15.2866 7.37478 15.4816 7.29939 15.6636C7.22401 15.8456 7.11352 16.011 6.97423 16.1503C6.83495 16.2895 6.66959 16.4 6.4876 16.4754C6.30561 16.5508 6.11056 16.5896 5.91357 16.5896C5.71659 16.5896 5.52154 16.5508 5.33955 16.4754C5.15756 16.4 4.9922 16.2895 4.85291 16.1503C4.71363 16.011 4.60314 15.8456 4.52775 15.6636C4.45237 15.4816 4.41357 15.2866 4.41357 15.0896ZM14.9136 13.5896C15.3114 13.5896 15.6929 13.7476 15.9742 14.0289C16.2555 14.3102 16.4136 14.6918 16.4136 15.0896C16.4136 15.4874 16.2555 15.869 15.9742 16.1503C15.6929 16.4316 15.3114 16.5896 14.9136 16.5896C14.5157 16.5896 14.1342 16.4316 13.8529 16.1503C13.5716 15.869 13.4136 15.4874 13.4136 15.0896C13.4136 14.6918 13.5716 14.3102 13.8529 14.0289C14.1342 13.7476 14.5157 13.5896 14.9136 13.5896ZM8.28857 5.5896C8.28857 5.93335 8.56982 6.2146 8.91357 6.2146H10.2886V7.5896C10.2886 7.93335 10.5698 8.2146 10.9136 8.2146C11.2573 8.2146 11.5386 7.93335 11.5386 7.5896V6.2146H12.9136C13.2573 6.2146 13.5386 5.93335 13.5386 5.5896C13.5386 5.24585 13.2573 4.9646 12.9136 4.9646H11.5386V3.5896C11.5386 3.24585 11.2573 2.9646 10.9136 2.9646C10.5698 2.9646 10.2886 3.24585 10.2886 3.5896V4.9646H8.91357C8.56982 4.9646 8.28857 5.24585 8.28857 5.5896Z" fill="white"/>
</svg>
