<svg width="40" height="40" viewBox="0 0 40 40" fill="none" xmlns="http://www.w3.org/2000/svg">
<g filter="url(#filter0_d_72_48)">
<path d="M36 16C36 7.1625 28.8375 0 20 0C11.1625 0 4 7.1625 4 16C4 23.5 9.16875 29.8 16.1375 31.5312V20.8875H12.8375V16H16.1375V13.8938C16.1375 8.45 18.6 5.925 23.95 5.925C24.9625 5.925 26.7125 6.125 27.4312 6.325V10.75C27.0562 10.7125 26.4 10.6875 25.5812 10.6875C22.9562 10.6875 21.9438 11.6812 21.9438 14.2625V16H27.1688L26.2687 20.8875H21.9375V31.8813C29.8625 30.925 36 24.1812 36 16Z" fill="white"/>
</g>
<defs>
<filter id="filter0_d_72_48" x="0" y="0" width="40" height="39.8813" filterUnits="userSpaceOnUse" color-interpolation-filters="sRGB">
<feFlood flood-opacity="0" result="BackgroundImageFix"/>
<feColorMatrix in="SourceAlpha" type="matrix" values="0 0 0 0 0 0 0 0 0 0 0 0 0 0 0 0 0 0 127 0" result="hardAlpha"/>
<feOffset dy="4"/>
<feGaussianBlur stdDeviation="2"/>
<feComposite in2="hardAlpha" operator="out"/>
<feColorMatrix type="matrix" values="0 0 0 0 0 0 0 0 0 0 0 0 0 0 0 0 0 0 0.25 0"/>
<feBlend mode="normal" in2="BackgroundImageFix" result="effect1_dropShadow_72_48"/>
<feBlend mode="normal" in="SourceGraphic" in2="effect1_dropShadow_72_48" result="shape"/>
</filter>
</defs>
</svg>
