<svg width="30" height="24" viewBox="0 0 30 24" fill="none" xmlns="http://www.w3.org/2000/svg">
<path d="M9.40313 1.5C9.60938 0.91406 9.30469 0.271872 8.71875 0.0656221C8.13281 -0.140628 7.49062 0.16406 7.28437 0.749997L6.78281 2.16562L6.31875 0.768747C6.12188 0.178122 5.48438 -0.140628 4.89375 0.0562471C4.30313 0.253122 3.98437 0.890622 4.18125 1.48125L4.57031 2.65312L3.28594 1.71562C2.78437 1.35 2.08125 1.4625 1.71562 1.96406C1.35 2.46562 1.4625 3.16875 1.96406 3.53437L3.29062 4.5H2.25C1.00781 4.5 0 5.50781 0 6.75V21.75C0 22.9922 1.00781 24 2.25 24H9.40313C9.15 23.5594 9 23.0484 9 22.5V12C9 10.5984 9.96094 9.42187 11.2594 9.09375C11.3437 7.64062 12.0609 6.36562 13.1391 5.52656C12.7359 4.90781 12.0422 4.5 11.25 4.5H10.2094L11.5359 3.53437C12.0375 3.16875 12.15 2.46562 11.7844 1.96406C11.4187 1.4625 10.7156 1.35 10.2141 1.71562L9.02344 2.58281L9.40313 1.5ZM17.0391 8.69531L18.4266 10.5H16.125C15.5016 10.5 15 9.99843 15 9.375C15 8.76093 15.5063 8.25 16.1344 8.25C16.4906 8.25 16.8234 8.41406 17.0391 8.69531ZM12.75 9.375C12.75 9.76875 12.8156 10.1484 12.9422 10.5H12.75C11.5078 10.5 10.5 11.5078 10.5 12.75V16.5H19.5V12H21V16.5H30V12.75C30 11.5078 28.9922 10.5 27.75 10.5H27.5578C27.6844 10.1484 27.75 9.76875 27.75 9.375C27.75 7.50468 26.2266 6 24.3656 6C23.3156 6 22.3219 6.4875 21.6797 7.32187L20.25 9.17812L18.8203 7.32187C18.1781 6.4875 17.1797 6 16.1344 6C14.2734 6 12.75 7.50468 12.75 9.375ZM10.5 21.75C10.5 22.9922 11.5078 24 12.75 24H19.5V18H10.5V21.75ZM21 24H27.75C28.9922 24 30 22.9922 30 21.75V18H21V24ZM25.5 9.375C25.5 9.99843 24.9984 10.5 24.375 10.5H22.0734L23.4609 8.69531C23.6766 8.41875 24.0094 8.25 24.3656 8.25C24.9937 8.25 25.5 8.76093 25.5 9.375Z" fill="#E3C696"/>
</svg>
