<svg width="41" height="32" viewBox="0 0 41 32" fill="none" xmlns="http://www.w3.org/2000/svg">
<g clip-path="url(#clip0_101_132)">
<path d="M12.0942 1.66798L12.0938 1.66911L11.5876 3.11286L10.5255 6.14177L13.12 4.25208L14.7075 3.09583L14.7078 3.09559C14.9273 2.93559 15.2401 2.98238 15.4044 3.20783C15.5643 3.42719 15.5177 3.73974 15.2925 3.90416C15.2924 3.90424 15.2923 3.90433 15.2922 3.90442L13.524 5.19152L11.0395 7.00001H14.1125H15.5C15.8999 7.00001 16.272 7.11652 16.585 7.31922C15.541 8.40936 14.8213 9.81317 14.5854 11.3816C12.7743 12.1315 11.5 13.9159 11.5 16V30C11.5 30.3434 11.5353 30.6778 11.6014 31H3.5C2.39604 31 1.5 30.104 1.5 29V9.00001C1.5 7.89604 2.39603 7.00001 3.5 7.00001H4.8875H7.96049L5.47601 5.19152L3.70782 3.90442C3.70773 3.90436 3.70765 3.9043 3.70756 3.90423C3.48234 3.73984 3.43565 3.42722 3.59558 3.20783C3.75986 2.98247 4.07245 2.93563 4.29192 3.0954C4.29201 3.09546 4.29209 3.09552 4.29218 3.09559L6.00418 4.34522L8.52694 6.18665L7.54281 3.22242L7.02406 1.65992L7.02368 1.65878C6.93583 1.39522 7.07767 1.11154 7.34123 1.02369C7.60466 0.935878 7.88821 1.07755 7.9762 1.34087C7.97624 1.34099 7.97628 1.34111 7.97632 1.34123L8.59475 3.20278L9.51331 5.96776L10.4863 3.22147L11.1551 1.33397L11.1558 1.33204C11.2459 1.07607 11.5283 0.937623 11.793 1.03077C12.0489 1.12088 12.1874 1.40334 12.0942 1.66798ZM39.5 17V21H29.5V16V15L29.9312 15H33C34.3835 15 35.5 13.8835 35.5 12.5C35.5 11.1263 34.3746 10 32.9875 10C32.195 10 31.4638 10.3745 30.9926 10.9789L30.9926 10.9789L30.9885 10.9842L29.1385 13.3905L27.901 15H27.099L25.8615 13.3905L24.0124 10.9853C24.0123 10.9853 24.0123 10.9852 24.0122 10.9852C23.5348 10.3625 22.7973 10 22.0125 10C20.6254 10 19.5 11.1263 19.5 12.5C19.5 13.8835 20.6165 15 22 15H25.0688L25.5 15V16V21H15.5V17C15.5 15.896 16.396 15 17.5 15H17.7563H19.1791L18.6971 13.6613C18.5689 13.3051 18.5 12.9137 18.5 12.5C18.5 10.564 20.0781 9.00001 22.0125 9.00001C23.0972 9.00001 24.1352 9.50697 24.8013 10.3724L24.8015 10.3727L26.7077 12.8477L27.5 13.8763L28.2923 12.8477L30.1985 10.3727L30.1987 10.3724C30.8653 9.50638 31.8973 9.00001 32.9875 9.00001C34.9219 9.00001 36.5 10.564 36.5 12.5C36.5 12.9137 36.4311 13.3051 36.3029 13.6613L35.8209 15H37.2438H37.5C38.604 15 39.5 15.896 39.5 17ZM17.5 31C16.396 31 15.5 30.104 15.5 29V25H25.5V31H17.5ZM29.5 31V25H39.5V29C39.5 30.104 38.604 31 37.5 31H29.5Z" stroke="#34251F" stroke-width="2"/>
</g>
<defs>
<clipPath id="clip0_101_132">
<rect width="40" height="32" fill="white" transform="translate(0.5)"/>
</clipPath>
</defs>
</svg>
