<svg width="41" height="32" viewBox="0 0 41 32" fill="none" xmlns="http://www.w3.org/2000/svg">
<g clip-path="url(#clip0_101_118)">
<path d="M9.5 21H10.2625H10.6502L10.9365 21.2613L16.649 26.4738L16.6494 26.4741C17.465 27.219 18.7246 27.1624 19.4718 26.3469C19.7046 26.088 19.8587 25.7901 19.9377 25.4826L20.3527 23.8661L21.5824 24.9945L22.6449 25.9695L22.645 25.9696C23.4569 26.7149 24.7243 26.6606 25.4696 25.8488L25.4697 25.8486C25.6549 25.647 25.7938 25.4086 25.8829 25.1584L26.3139 23.9475L27.3817 24.663C28.1906 25.2051 29.2894 25.0916 29.9688 24.3496L29.9696 24.3488C30.7147 23.537 30.6607 22.27 29.8493 21.5247L9.5 21ZM9.5 21V8.53518L13.5522 5.83368C13.5526 5.83343 13.553 5.83318 13.5534 5.83293C14.3735 5.28996 15.3236 5.00107 16.2947 5.00624L16.2947 5.00625H16.3C16.3151 5.00625 16.3301 5.00632 16.3452 5.00645L12.7711 7.89751C12.7711 7.89751 12.7711 7.89751 12.7711 7.89752C10.5255 9.71389 10.0971 12.977 11.7977 15.3135L11.7979 15.3138C13.605 17.7946 17.1057 18.2867 19.5209 16.4013C19.5212 16.4011 19.5215 16.4009 19.5217 16.4006L22.0845 14.4079L29.8488 21.5242L9.5 21ZM1.5 21V22C1.5 22.554 1.94603 23 2.5 23H3.5M1.5 21V9H5.5V21M1.5 21C1.5 20.4696 1.71071 19.9609 2.08579 19.5858C2.46086 19.2107 2.96957 19 3.5 19C4.03043 19 4.53914 19.2107 4.91421 19.5858C5.28929 19.9609 5.5 20.4696 5.5 21M1.5 21C1.5 21.5304 1.71071 22.0391 2.08579 22.4142C2.46086 22.7893 2.96957 23 3.5 23M3.5 23H4.5C5.05397 23 5.5 22.554 5.5 22V21M3.5 23C4.03043 23 4.53914 22.7893 4.91421 22.4142C5.28929 22.0391 5.5 21.5304 5.5 21M35.5 21V22C35.5 22.554 35.946 23 36.5 23H37.5M35.5 21V9H39.5V21M35.5 21C35.5 20.4696 35.7107 19.9609 36.0858 19.5858C36.4609 19.2107 36.9696 19 37.5 19C38.0304 19 38.5391 19.2107 38.9142 19.5858C39.2893 19.9609 39.5 20.4696 39.5 21M35.5 21C35.5 21.5304 35.7107 22.0391 36.0858 22.4142C36.4609 22.7893 36.9696 23 37.5 23M37.5 23H38.5C39.054 23 39.5 22.554 39.5 22V21M37.5 23C38.0304 23 38.5391 22.7893 38.9142 22.4142C39.2893 22.0391 39.5 21.5304 39.5 21" stroke="#34251F" stroke-width="2"/>
</g>
<defs>
<clipPath id="clip0_101_118">
<rect width="40" height="32" fill="white" transform="translate(0.5)"/>
</clipPath>
</defs>
</svg>
