<svg width="25" height="15" viewBox="0 0 25 15" fill="none" xmlns="http://www.w3.org/2000/svg">
<path d="M12.6328 0.828857L8.85156 3.89136C8.22266 4.39917 8.10156 5.31323 8.57812 5.96558C9.08203 6.66089 10.0625 6.79761 10.7383 6.27026L14.6172 3.25464C14.8906 3.0437 15.2812 3.09058 15.4961 3.36401C15.7109 3.63745 15.6602 4.02808 15.3867 4.24292L14.5703 4.87573L21.4922 11.2507H23.125C24.1602 11.2507 25 10.4109 25 9.37573V4.37573C25 3.34058 24.1602 2.50073 23.125 2.50073H20.1562H20H19.9727L19.8203 2.40308L16.9844 0.58667C16.3867 0.203857 15.6875 0.000732422 14.9766 0.000732422C14.125 0.000732422 13.2969 0.293701 12.6328 0.828857ZM13.5234 5.68823L11.5039 7.25854C10.2734 8.21948 8.48828 7.96948 7.56641 6.70386C6.69922 5.51245 6.91797 3.84839 8.0625 2.92261L11.3125 0.293701C10.8594 0.102295 10.3711 0.00463861 9.875 0.00463861C9.14062 0.000732362 8.42578 0.219482 7.8125 0.625732L5 2.50073H1.875C0.839844 2.50073 0 3.34058 0 4.37573V9.37573C0 10.4109 0.839844 11.2507 1.875 11.2507H6.10156L9.67188 14.5085C10.4375 15.2078 11.6211 15.1531 12.3203 14.3875C12.5352 14.1492 12.6797 13.8718 12.7539 13.5828L13.418 14.1921C14.1797 14.8914 15.3672 14.8406 16.0664 14.0789C16.2422 13.8875 16.3711 13.6648 16.4531 13.4343C17.2109 13.9421 18.2422 13.8367 18.8789 13.1414C19.5781 12.3796 19.5273 11.1921 18.7656 10.4929L13.5234 5.68823Z" fill="#E3C696"/>
</svg>
