<svg width="29" height="29" viewBox="0 0 29 29" fill="none" xmlns="http://www.w3.org/2000/svg">
<path d="M14.4199 7.40205C10.4449 7.40205 7.23862 10.6083 7.23862 14.5833C7.23862 18.5583 10.4449 21.7645 14.4199 21.7645C18.3949 21.7645 21.6011 18.5583 21.6011 14.5833C21.6011 10.6083 18.3949 7.40205 14.4199 7.40205ZM14.4199 19.2521C11.8511 19.2521 9.75112 17.1583 9.75112 14.5833C9.75112 12.0083 11.8449 9.91455 14.4199 9.91455C16.9949 9.91455 19.0886 12.0083 19.0886 14.5833C19.0886 17.1583 16.9886 19.2521 14.4199 19.2521ZM23.5699 7.1083C23.5699 8.03955 22.8199 8.7833 21.8949 8.7833C20.9636 8.7833 20.2199 8.0333 20.2199 7.1083C20.2199 6.1833 20.9699 5.4333 21.8949 5.4333C22.8199 5.4333 23.5699 6.1833 23.5699 7.1083ZM28.3261 8.8083C28.2199 6.56455 27.7074 4.57705 26.0636 2.93955C24.4261 1.30205 22.4386 0.789551 20.1949 0.677051C17.8824 0.545801 10.9511 0.545801 8.63862 0.677051C6.40112 0.783301 4.41362 1.2958 2.76987 2.9333C1.12612 4.5708 0.619873 6.5583 0.507373 8.80205C0.376123 11.1146 0.376123 18.0458 0.507373 20.3583C0.613623 22.602 1.12612 24.5896 2.76987 26.2271C4.41362 27.8646 6.39487 28.377 8.63862 28.4895C10.9511 28.6208 17.8824 28.6208 20.1949 28.4895C22.4386 28.3833 24.4261 27.8708 26.0636 26.2271C27.7011 24.5896 28.2136 22.602 28.3261 20.3583C28.4574 18.0458 28.4574 11.1208 28.3261 8.8083ZM25.3386 22.8396C24.8511 24.0646 23.9074 25.0083 22.6761 25.5021C20.8324 26.2333 16.4574 26.0646 14.4199 26.0646C12.3824 26.0646 8.00112 26.2271 6.16362 25.5021C4.93862 25.0146 3.99487 24.0708 3.50112 22.8396C2.76987 20.9958 2.93862 16.6208 2.93862 14.5833C2.93862 12.5458 2.77612 8.16455 3.50112 6.32705C3.98862 5.10205 4.93237 4.1583 6.16362 3.66455C8.00737 2.9333 12.3824 3.10205 14.4199 3.10205C16.4574 3.10205 20.8386 2.93955 22.6761 3.66455C23.9011 4.15205 24.8449 5.0958 25.3386 6.32705C26.0699 8.1708 25.9011 12.5458 25.9011 14.5833C25.9011 16.6208 26.0699 21.0021 25.3386 22.8396Z" fill="white"/>
</svg>
