<svg width="33" height="33" viewBox="0 0 33 33" fill="none" xmlns="http://www.w3.org/2000/svg">
<path d="M12.411 23.6286C9.53486 27.6727 4.53555 28.1275 0.588521 26.382C3.28107 26.2437 6.24062 24.8749 8.43931 22.7722C9.40542 21.5015 10.088 19.4753 10.607 16.2532C10.7954 15.0838 10.4591 11.0561 12.2898 8.7092C15.1659 4.66515 20.0892 3.13533 24.0362 4.88084C21.3437 5.0191 17.6258 7.24801 16.5912 9.6146C16.0009 10.9649 15.8294 13.8806 15.6684 15.432C15.3019 17.1549 15.4371 19.873 12.411 23.6286Z" fill="#C64DF0"/>
<path d="M22.1469 23.2424C20.126 26.0839 13.8034 29.1863 10.0702 27.1401C14.4868 27.6576 15.3607 26.3047 18.3935 22.598C20.1756 20.42 20.171 19.4436 20.3812 17.7913C20.5728 16.2852 20.5137 13.886 21.5463 11.2573C23.5672 8.41585 27.4087 6.50746 31.1419 8.55361C26.4812 9.60506 25.3897 10.5747 24.7677 12.8345C24.1208 15.185 24.0986 15.185 23.9599 17.0768C23.8288 18.8651 23.641 20.6676 22.1469 23.2424Z" fill="#A900C5"/>
</svg>
