<svg width="1476" height="38" viewBox="0 0 1476 38" fill="none" xmlns="http://www.w3.org/2000/svg">
<path d="M0 18.955C49.2 -4.985 98.4 -4.985 147.6 18.955C196.8 42.895 246 42.895 295.2 18.955C344.4 -4.985 393.6 -4.985 442.8 18.955C492 42.895 541.2 42.895 590.4 18.955C639.6 -4.985 688.8 -4.985 738 18.955C787.2 42.895 836.4 42.895 885.6 18.955C934.8 -4.985 984 -4.985 1033.2 18.955C1082.4 42.895 1131.6 42.895 1180.8 18.955C1230 -4.985 1279.2 -4.985 1328.4 18.955C1377.6 42.895 1426.8 42.895 1476 18.955" stroke="#4E4842" stroke-opacity="0.15" stroke-width="2" stroke-linejoin="round"/>
</svg>
