<svg width="23" height="21" viewBox="0 0 23 21" fill="none" xmlns="http://www.w3.org/2000/svg">
<path d="M16.125 4.25V4.27734C15.918 4.26172 15.7109 4.25 15.5 4.25H10.5C9.85547 4.25 9.23047 4.33203 8.63281 4.48438C8.62891 4.40625 8.625 4.32812 8.625 4.25C8.625 2.17969 10.3047 0.5 12.375 0.5C14.4453 0.5 16.125 2.17969 16.125 4.25ZM15.5 5.5C15.6367 5.5 15.7734 5.50391 15.9062 5.51172C16.0703 5.52344 16.2344 5.53906 16.3984 5.5625C17.0859 4.76172 18.1094 4.25 19.25 4.25H19.6992C20.1055 4.25 20.4023 4.63281 20.3047 5.02734L19.7656 7.18359C20.3828 7.76172 20.8867 8.46484 21.2305 9.25H21.75C22.4414 9.25 23 9.80859 23 10.5V14.25C23 14.9414 22.4414 15.5 21.75 15.5H20.5C20.1445 15.9727 19.7227 16.3945 19.25 16.75V19.25C19.25 19.9414 18.6914 20.5 18 20.5H16.75C16.0586 20.5 15.5 19.9414 15.5 19.25V18H10.5V19.25C10.5 19.9414 9.94141 20.5 9.25 20.5H8C7.30859 20.5 6.75 19.9414 6.75 19.25V16.75C5.38672 15.7266 4.45703 14.1602 4.28125 12.375H3.15625C1.6875 12.375 0.5 11.1875 0.5 9.71875C0.5 8.25 1.6875 7.0625 3.15625 7.0625H3.3125C3.83203 7.0625 4.25 7.48047 4.25 8C4.25 8.51953 3.83203 8.9375 3.3125 8.9375H3.15625C2.72656 8.9375 2.375 9.28906 2.375 9.71875C2.375 10.1484 2.72656 10.5 3.15625 10.5H4.375C4.84766 8.16406 6.62891 6.30078 8.91797 5.70312C9.42188 5.57031 9.95312 5.5 10.5 5.5H15.5ZM18 10.8125C18 10.5639 17.9012 10.3254 17.7254 10.1496C17.5496 9.97377 17.3111 9.875 17.0625 9.875C16.8139 9.875 16.5754 9.97377 16.3996 10.1496C16.2238 10.3254 16.125 10.5639 16.125 10.8125C16.125 11.0611 16.2238 11.2996 16.3996 11.4754C16.5754 11.6512 16.8139 11.75 17.0625 11.75C17.3111 11.75 17.5496 11.6512 17.7254 11.4754C17.9012 11.2996 18 11.0611 18 10.8125Z" fill="#E3C696"/>
</svg>
