<svg width="37" height="32" viewBox="0 0 37 32" fill="none" xmlns="http://www.w3.org/2000/svg">
<g clip-path="url(#clip0_101_120)">
<path d="M25.7961 9.08995L26.339 9.16751L26.6962 8.7514C27.6152 7.68097 28.9802 7 30.5 7H31.2168C31.217 7.00038 31.2172 7.0007 31.2173 7.00096C31.2172 7.00147 31.2171 7.00218 31.2169 7.00309C31.2169 7.00322 31.2168 7.00334 31.2168 7.00348L30.3549 10.4512L30.2123 11.0216L30.6414 11.4236C31.5325 12.2583 32.2585 13.2723 32.7527 14.4011L33.0149 15H33.6688H34.5C35.054 15 35.5 15.446 35.5 16V22C35.5 22.554 35.054 23 34.5 23H32.5H32.0008L31.7008 23.3989C31.1885 24.0802 30.5802 24.6885 29.8989 25.2008L29.5 25.5008V26V30C29.5 30.554 29.054 31 28.5 31H26.5C25.946 31 25.5 30.554 25.5 30V28V27H24.5H16.5H15.5V28V30C15.5 30.554 15.054 31 14.5 31H12.5C11.946 31 11.5 30.554 11.5 30V26V25.5003L11.1004 25.2003C9.13493 23.7248 7.79797 21.4692 7.54519 18.902L7.45637 18H6.55H4.75C2.95228 18 1.5 16.5477 1.5 14.75C1.5 12.9523 2.95228 11.5 4.75 11.5H5C5.27897 11.5 5.5 11.721 5.5 12C5.5 12.279 5.27897 12.5 5 12.5H4.75C3.51022 12.5 2.5 13.5102 2.5 14.75C2.5 15.9898 3.51022 17 4.75 17H6.7H7.51792L7.68014 16.1983C8.36003 12.8382 10.9253 10.1531 14.2214 9.29257L14.2236 9.29198C14.9465 9.10146 15.7108 9 16.5 9H24.5C24.6978 9 24.8949 9.0056 25.0851 9.01666C25.3301 9.03427 25.5658 9.05706 25.7961 9.08995ZM31.2174 7.00005C31.2174 7.00003 31.2174 7.00002 31.2174 7L31.2176 7.00127L31.2174 7.00005ZM16.5 5C15.8453 5 15.2021 5.04888 14.5733 5.14252C14.9803 2.79046 17.0321 1 19.5 1C21.9178 1 23.9362 2.71851 24.3999 5H16.5ZM29.5 16.5C29.5 15.837 29.2366 15.2011 28.7678 14.7322C28.2989 14.2634 27.663 14 27 14C26.337 14 25.7011 14.2634 25.2322 14.7322C24.7634 15.2011 24.5 15.837 24.5 16.5C24.5 17.163 24.7634 17.7989 25.2322 18.2678C25.7011 18.7366 26.337 19 27 19C27.663 19 28.2989 18.7366 28.7678 18.2678C29.2366 17.7989 29.5 17.163 29.5 16.5Z" stroke="#34251F" stroke-width="2"/>
</g>
<defs>
<clipPath id="clip0_101_120">
<rect width="36" height="32" fill="white" transform="translate(0.5)"/>
</clipPath>
</defs>
</svg>
