<svg width="30" height="25" viewBox="0 0 30 25" fill="none" xmlns="http://www.w3.org/2000/svg">
<path d="M0 2.75C0 1.50781 1.00781 0.5 2.25 0.5H17.25C18.4922 0.5 19.5 1.50781 19.5 2.75V5H21.8766C22.6734 5 23.4375 5.31406 24 5.87656L27.6234 9.5C28.1859 10.0625 28.5 10.8266 28.5 11.6234V12.5V14V17C29.3297 17 30 17.6703 30 18.5C30 19.3297 29.3297 20 28.5 20H27C27 22.4844 24.9844 24.5 22.5 24.5C20.0156 24.5 18 22.4844 18 20H12C12 22.4844 9.98438 24.5 7.5 24.5C5.01562 24.5 3 22.4844 3 20H2.25C1.00781 20 0 18.9922 0 17.75V2.75ZM19.5 12.5H25.5V11.6234L21.8766 8H19.5V12.5ZM7.5 22.25C8.09674 22.25 8.66903 22.0129 9.09099 21.591C9.51295 21.169 9.75 20.5967 9.75 20C9.75 19.4033 9.51295 18.831 9.09099 18.409C8.66903 17.9871 8.09674 17.75 7.5 17.75C6.90326 17.75 6.33097 17.9871 5.90901 18.409C5.48705 18.831 5.25 19.4033 5.25 20C5.25 20.5967 5.48705 21.169 5.90901 21.591C6.33097 22.0129 6.90326 22.25 7.5 22.25ZM24.75 20C24.75 19.4033 24.5129 18.831 24.091 18.409C23.669 17.9871 23.0967 17.75 22.5 17.75C21.9033 17.75 21.331 17.9871 20.909 18.409C20.4871 18.831 20.25 19.4033 20.25 20C20.25 20.5967 20.4871 21.169 20.909 21.591C21.331 22.0129 21.9033 22.25 22.5 22.25C23.0967 22.25 23.669 22.0129 24.091 21.591C24.5129 21.169 24.75 20.5967 24.75 20ZM12.0469 4.95312C11.6063 4.5125 10.8938 4.5125 10.4578 4.95312C10.0219 5.39375 10.0172 6.10625 10.4578 6.54219L12.2859 8.37031H4.5C3.87656 8.37031 3.375 8.87187 3.375 9.49531C3.375 10.1187 3.87656 10.6203 4.5 10.6203H12.2859L10.4578 12.4484C10.0172 12.8891 10.0172 13.6016 10.4578 14.0375C10.8984 14.4734 11.6109 14.4781 12.0469 14.0375L15.7969 10.2875C16.2375 9.84688 16.2375 9.13437 15.7969 8.69844L12.0469 4.95312Z" fill="#E3C696"/>
</svg>
