<svg width="41" height="32" viewBox="0 0 41 32" fill="none" xmlns="http://www.w3.org/2000/svg">
<g clip-path="url(#clip0_101_122)">
<path d="M9.5 1C10.5609 1 11.5783 1.42143 12.3284 2.17157C13.0786 2.92172 13.5 3.93913 13.5 5C13.5 6.06087 13.0786 7.07828 12.3284 7.82843C11.5783 8.57857 10.5609 9 9.5 9C8.43913 9 7.42172 8.57857 6.67157 7.82843C5.92143 7.07828 5.5 6.06087 5.5 5C5.5 3.93913 5.92143 2.92172 6.67157 2.17157C7.42172 1.42143 8.43913 1 9.5 1ZM32.5 1C33.5609 1 34.5783 1.42143 35.3284 2.17157C36.0786 2.92172 36.5 3.93913 36.5 5C36.5 6.06087 36.0786 7.07828 35.3284 7.82843C34.5783 8.57857 33.5609 9 32.5 9C31.4391 9 30.4217 8.57857 29.6716 7.82843C28.9214 7.07828 28.5 6.06087 28.5 5C28.5 3.93913 28.9214 2.92172 29.6716 2.17157C30.4217 1.42143 31.4391 1 32.5 1ZM1.5 18.6688C1.5 15.5398 4.03978 13 7.16875 13H9.8375C10.4282 13 10.998 13.0907 11.5348 13.258C11.5154 13.5047 11.5063 13.7526 11.5063 14C11.5063 15.8503 12.0671 17.5699 13.0235 19H1.83125C1.65228 19 1.5 18.8477 1.5 18.6688ZM29.4937 14C29.4937 13.7478 29.4828 13.5 29.4627 13.256C29.9974 13.0888 30.5678 13 31.1625 13H33.8312C36.9602 13 39.5 15.5398 39.5 18.6688C39.5 18.8509 39.3508 19 39.1688 19H27.9793C28.9364 17.5691 29.4937 15.8492 29.4937 14ZM15.5 14C15.5 12.6739 16.0268 11.4021 16.9645 10.4645C17.9021 9.52678 19.1739 9 20.5 9C21.8261 9 23.0979 9.52678 24.0355 10.4645C24.9732 11.4021 25.5 12.6739 25.5 14C25.5 15.3261 24.9732 16.5979 24.0355 17.5355C23.0979 18.4732 21.8261 19 20.5 19C19.1739 19 17.9021 18.4732 16.9645 17.5355C16.0268 16.5979 15.5 15.3261 15.5 14ZM9.5 30.3312C9.5 26.2835 12.7835 23 16.8312 23H24.1688C28.2165 23 31.5 26.2835 31.5 30.3312C31.5 30.7002 31.2015 31 30.8312 31H10.1687C9.79984 31 9.5 30.7015 9.5 30.3312Z" stroke="#34251F" stroke-width="2"/>
</g>
<defs>
<clipPath id="clip0_101_122">
<rect width="40" height="32" fill="white" transform="translate(0.5)"/>
</clipPath>
</defs>
</svg>
