<svg width="29" height="29" viewBox="0 0 29 29" fill="none" xmlns="http://www.w3.org/2000/svg">
<path d="M24.2198 4.65835C21.6011 2.03335 18.1136 0.5896 14.4073 0.5896C6.75732 0.5896 0.532324 6.8146 0.532324 14.4646C0.532324 16.9083 1.16982 19.2958 2.38232 21.4021L0.413574 28.5896L7.76982 26.6583C9.79482 27.7646 12.0761 28.3458 14.4011 28.3458H14.4073C22.0511 28.3458 28.4136 22.1209 28.4136 14.4708C28.4136 10.7646 26.8386 7.28335 24.2198 4.65835ZM14.4073 26.0084C12.3323 26.0084 10.3011 25.4521 8.53232 24.4021L8.11357 24.1521L3.75107 25.2958L4.91357 21.0396L4.63857 20.6021C3.48232 18.7646 2.87607 16.6458 2.87607 14.4646C2.87607 8.10835 8.05107 2.93335 14.4136 2.93335C17.4948 2.93335 20.3886 4.13335 22.5636 6.3146C24.7386 8.49585 26.0761 11.3896 26.0698 14.4708C26.0698 20.8334 20.7636 26.0084 14.4073 26.0084ZM20.7323 17.3708C20.3886 17.1958 18.6823 16.3583 18.3636 16.2458C18.0448 16.1271 17.8136 16.0708 17.5823 16.4208C17.3511 16.7708 16.6886 17.5458 16.4823 17.7833C16.2823 18.0146 16.0761 18.0458 15.7323 17.8708C13.6948 16.8521 12.3573 16.0521 11.0136 13.7458C10.6573 13.1333 11.3698 13.1771 12.0323 11.8521C12.1448 11.6208 12.0886 11.4208 12.0011 11.2458C11.9136 11.0708 11.2198 9.3646 10.9323 8.67085C10.6511 7.99585 10.3636 8.0896 10.1511 8.0771C9.95107 8.0646 9.71982 8.0646 9.48857 8.0646C9.25732 8.0646 8.88232 8.1521 8.56357 8.49585C8.24482 8.84585 7.35107 9.68335 7.35107 11.3896C7.35107 13.0958 8.59482 14.7459 8.76357 14.9771C8.93857 15.2084 11.2073 18.7083 14.6886 20.2146C16.8886 21.1646 17.7511 21.2458 18.8511 21.0833C19.5198 20.9833 20.9011 20.2458 21.1886 19.4333C21.4761 18.6208 21.4761 17.9271 21.3886 17.7833C21.3073 17.6271 21.0761 17.5396 20.7323 17.3708Z" fill="white"/>
</svg>
